HIERARCHY
ROOT reference
{
  OFFSET 0 0 0
  CHANNELS 6 Xposition Yposition Zposition Zrotation Xrotation Yrotation
  JOINT Hips
  {
    OFFSET 352.076 86.5813 226.294
    CHANNELS 3 Zrotation Xrotation Yrotation
    JOINT RightUpLeg
    {
      OFFSET -9.24446 -1.53332 -0.0100408
      CHANNELS 3 Zrotation Xrotation Yrotation
      JOINT RightLeg
      {
        OFFSET 0.0379954 -41.8775 0.0555708
        CHANNELS 3 Zrotation Xrotation Yrotation
        JOINT RightFoot
        {
          OFFSET 0.0737403 -43.7597 -0.208372
          CHANNELS 3 Zrotation Xrotation Yrotation
          End Site
          {
            OFFSET 0 -7.69 17.5
          }
        }
      }
    }
    JOINT LeftUpLeg
    {
      OFFSET 9.31004 -1.65148 -0.0333589
      CHANNELS 3 Zrotation Xrotation Yrotation
      JOINT LeftLeg
      {
        OFFSET 0.0881386 -41.8624 -0.0616493
        CHANNELS 3 Zrotation Xrotation Yrotation
        JOINT LeftFoot
        {
          OFFSET 0.763074 -39.9619 0.249975
          CHANNELS 3 Zrotation Xrotation Yrotation
          End Site
          {
            OFFSET 0 -7.69 17.5
          }
        }
      }
    }
    JOINT Spine
    {
      OFFSET 0.105097 14.2958 0.096313
      CHANNELS 3 Zrotation Xrotation Yrotation
      JOINT Spine1
      {
        OFFSET 0.0609256 9.72986 0.0283835
        CHANNELS 3 Zrotation Xrotation Yrotation
        JOINT Spine2
        {
          OFFSET 0.0349843 10.1145 -0.0203086
          CHANNELS 3 Zrotation Xrotation Yrotation
          JOINT Spine3
          {
            OFFSET 0.0323734 9.71864 0.0196425
            CHANNELS 3 Zrotation Xrotation Yrotation
            JOINT Neck
            {
              OFFSET 0.219168 10.3708 0.0833364
              CHANNELS 3 Zrotation Xrotation Yrotation
              JOINT Head
              {
                OFFSET 0.200748 9.48753 0.0966912
                CHANNELS 3 Zrotation Xrotation Yrotation
                End Site
                {
                  OFFSET 0 15.95 0
                }
              }
            }
            JOINT RightShoulder
            {
              OFFSET -3.14734 6.94135 0.063802
              CHANNELS 3 Zrotation Xrotation Yrotation
              JOINT RightArm
              {
                OFFSET -12.765 0.137663 0.228635
                CHANNELS 3 Zrotation Xrotation Yrotation
                JOINT RightForeArm
                {
                  OFFSET -26.5344 -0.389186 -0.00603507
                  CHANNELS 3 Zrotation Xrotation Yrotation
                  JOINT RightHand
                  {
                    OFFSET -26.1352 -0.0585664 0.0704552
                    CHANNELS 3 Zrotation Xrotation Yrotation
                    JOINT RightHandThumb1
                    {
                      OFFSET -2.48905 0.190105 3.12053
                      CHANNELS 3 Zrotation Xrotation Yrotation
                      JOINT RightHandThumb2
                      {
                        OFFSET -3.68274 0 0
                        CHANNELS 3 Zrotation Xrotation Yrotation
                        JOINT RightHandThumb3
                        {
                          OFFSET -2.55832 0 0
                          CHANNELS 3 Zrotation Xrotation Yrotation
                          End Site
                          {
                            OFFSET -2.194 0 0
                          }
                        }
                      }
                    }
                    JOINT RightInHandIndex
                    {
                      OFFSET -3.22368 0.508421 1.97842
                      CHANNELS 3 Zrotation Xrotation Yrotation
                      JOINT RightHandIndex1
                      {
                        OFFSET -5.21684 -0.091368 0.999158
                        CHANNELS 3 Zrotation Xrotation Yrotation
                        JOINT RightHandIndex2
                        {
                          OFFSET -3.61937 0 0
                          CHANNELS 3 Zrotation Xrotation Yrotation
                          JOINT RightHandIndex3
                          {
                            OFFSET -2.0521 0 0
                            CHANNELS 3 Zrotation Xrotation Yrotation
                            End Site
                            {
                              OFFSET -1.805 0 0
                            }
                          }
                        }
                      }
                    }
                    JOINT RightInHandMiddle
                    {
                      OFFSET -3.38211 0.517263 0.756737
                      CHANNELS 3 Zrotation Xrotation Yrotation
                      JOINT RightHandMiddle1
                      {
                        OFFSET -5.17411 -0.084 0.313895
                        CHANNELS 3 Zrotation Xrotation Yrotation
                        JOINT RightHandMiddle2
                        {
                          OFFSET -3.94947 0 0
                          CHANNELS 3 Zrotation Xrotation Yrotation
                          JOINT RightHandMiddle3
                          {
                            OFFSET -2.47579 0 0
                            CHANNELS 3 Zrotation Xrotation Yrotation
                            End Site
                            {
                              OFFSET -1.975 0 0
                            }
                          }
                        }
                      }
                    }
                    JOINT RightInHandRing
                    {
                      OFFSET -3.36516 0.537895 -0.128947
                      CHANNELS 3 Zrotation Xrotation Yrotation
                      JOINT RightHandRing1
                      {
                        OFFSET -4.63474 -0.022105 -0.478947
                        CHANNELS 3 Zrotation Xrotation Yrotation
                        JOINT RightHandRing2
                        {
                          OFFSET -3.44238 0 0
                          CHANNELS 3 Zrotation Xrotation Yrotation
                          JOINT RightHandRing3
                          {
                            OFFSET -2.3881 0 0
                            CHANNELS 3 Zrotation Xrotation Yrotation
                            End Site
                            {
                              OFFSET -1.857 0 0
                            }
                          }
                        }
                      }
                    }
                    JOINT RightInHandPinky
                    {
                      OFFSET -3.16105 0.469368 -1.20179
                      CHANNELS 3 Zrotation Xrotation Yrotation
                      JOINT RightHandPinky1
                      {
                        OFFSET -4.14105 -0.022105 -1.09053
                        CHANNELS 3 Zrotation Xrotation Yrotation
                        JOINT RightHandPinky2
                        {
                          OFFSET -2.75653 0 0
                          CHANNELS 3 Zrotation Xrotation Yrotation
                          JOINT RightHandPinky3
                          {
                            OFFSET -1.74189 0 0
                            CHANNELS 3 Zrotation Xrotation Yrotation
                            End Site
                            {
                              OFFSET -1.645 0 0
                            }
                          }
                        }
                      }
                    }
                  }
                }
              }
            }
            JOINT LeftShoulder
            {
              OFFSET 3.26179 6.89719 -0.0373062
              CHANNELS 3 Zrotation Xrotation Yrotation
              JOINT LeftArm
              {
                OFFSET 12.4839 0.0196156 -0.0323257
                CHANNELS 3 Zrotation Xrotation Yrotation
                JOINT LeftForeArm
                {
                  OFFSET 26.5039 -0.120667 0.247609
                  CHANNELS 3 Zrotation Xrotation Yrotation
                  JOINT LeftHand
                  {
                    OFFSET 25.9984 -0.032285 0.00286418
                    CHANNELS 3 Zrotation Xrotation Yrotation
                    JOINT LeftHandThumb1
                    {
                      OFFSET 2.48905 0.190105 3.12053
                      CHANNELS 3 Zrotation Xrotation Yrotation
                      JOINT LeftHandThumb2
                      {
                        OFFSET 3.68274 0 0
                        CHANNELS 3 Zrotation Xrotation Yrotation
                        JOINT LeftHandThumb3
                        {
                          OFFSET 2.55832 0 0
                          CHANNELS 3 Zrotation Xrotation Yrotation
                          End Site
                          {
                            OFFSET 2.194 0 0
                          }
                        }
                      }
                    }
                    JOINT LeftInHandIndex
                    {
                      OFFSET 3.22368 0.508421 1.97842
                      CHANNELS 3 Zrotation Xrotation Yrotation
                      JOINT LeftHandIndex1
                      {
                        OFFSET 5.21684 -0.091368 0.999158
                        CHANNELS 3 Zrotation Xrotation Yrotation
                        JOINT LeftHandIndex2
                        {
                          OFFSET 3.61937 0 0
                          CHANNELS 3 Zrotation Xrotation Yrotation
                          JOINT LeftHandIndex3
                          {
                            OFFSET 2.0521 0 0
                            CHANNELS 3 Zrotation Xrotation Yrotation
                            End Site
                            {
                              OFFSET 1.805 0 0
                            }
                          }
                        }
                      }
                    }
                    JOINT LeftInHandMiddle
                    {
                      OFFSET 3.38211 0.517263 0.756737
                      CHANNELS 3 Zrotation Xrotation Yrotation
                      JOINT LeftHandMiddle1
                      {
                        OFFSET 5.17411 -0.084 0.313895
                        CHANNELS 3 Zrotation Xrotation Yrotation
                        JOINT LeftHandMiddle2
                        {
                          OFFSET 3.94947 0 0
                          CHANNELS 3 Zrotation Xrotation Yrotation
                          JOINT LeftHandMiddle3
                          {
                            OFFSET 2.47579 0 0
                            CHANNELS 3 Zrotation Xrotation Yrotation
                            End Site
                            {
                              OFFSET 1.975 0 0
                            }
                          }
                        }
                      }
                    }
                    JOINT LeftInHandRing
                    {
                      OFFSET 3.36516 0.537895 -0.128947
                      CHANNELS 3 Zrotation Xrotation Yrotation
                      JOINT LeftHandRing1
                      {
                        OFFSET 4.63474 -0.022105 -0.478947
                        CHANNELS 3 Zrotation Xrotation Yrotation
                        JOINT LeftHandRing2
                        {
                          OFFSET 3.44238 0 0
                          CHANNELS 3 Zrotation Xrotation Yrotation
                          JOINT LeftHandRing3
                          {
                            OFFSET 2.3881 0 0
                            CHANNELS 3 Zrotation Xrotation Yrotation
                            End Site
                            {
                              OFFSET 1.857 0 0
                            }
                          }
                        }
                      }
                    }
                    JOINT LeftInHandPinky
                    {
                      OFFSET 3.16105 0.469368 -1.20179
                      CHANNELS 3 Zrotation Xrotation Yrotation
                      JOINT LeftHandPinky1
                      {
                        OFFSET 4.14105 -0.022105 -1.09053
                        CHANNELS 3 Zrotation Xrotation Yrotation
                        JOINT LeftHandPinky2
                        {
                          OFFSET 2.75653 0 0
                          CHANNELS 3 Zrotation Xrotation Yrotation
                          JOINT LeftHandPinky3
                          {
                            OFFSET 1.74189 0 0
                            CHANNELS 3 Zrotation Xrotation Yrotation
                            End Site
                            {
                              OFFSET 1.645 0 0
                            }
                          }
                        }
                      }
                    }
                  }
                }
              }
            }
          }
        }
      }
    }
  }
}
MOTION
Frames: 2
Frame Time: 0.00833333
1.500000000000000000e+02 0.000000000000000000e+00 0.000000000000000000e+00 0.000000000000000000e+00 0.000000000000000000e+00 -0.000000000000000000e+00 -4.883100816543314328e-03 6.804459606710196173e-02 3.466540010515219844e-02 -8.290057298366332490e-04 5.865904083744777515e-03 -9.603364350801227300e-02 -1.908451060632964658e-01 1.922534566349439755e-01 3.290207847514614037e-01 2.148621155899822777e-01 -2.581493837476704356e-01 -1.837794394446071733e-01 3.844036638964668656e-02 3.817133582941798896e-03 -8.083390350275844460e-02 4.792342773553443652e-02 -2.206767284544806362e-01 -7.122232863055270868e-02 4.609008082891438707e-02 2.209204296983818816e-01 8.657216399720499278e-02 3.025415058757478445e-02 1.779141182130997492e-02 -1.699037996074163198e-02 7.367110659671624248e-03 6.912461825949415585e-03 -5.165219137335558264e-03 1.221277603633042809e-02 1.002211345144064618e-02 -8.269259846252293225e-03 3.567237049877462199e-04 -8.386493143936746275e-04 4.629942677515955728e-04 4.368381143658067495e-04 -8.106549601165116388e-04 -2.269004943935621840e-02 -3.276141118985134455e-03 3.783520405297924522e-04 1.268351921981663959e-02 3.233891148964948559e-02 8.395181680318809792e-03 -1.725769273236797685e-01 9.597108390465203254e-02 1.171187938234999060e-01 1.579175507499046838e-01 2.389789297712894001e-01 3.731260554977174349e-01 -2.101687471235781091e-01 -3.140196198327660504e-02 4.279644080795440564e-01 2.251970567601007112e-01 0.000000000000000000e+00 0.000000000000000000e+00 0.000000000000000000e+00 -7.335213882247858579e-16 -9.482571717115222706e-15 0.000000000000000000e+00 -6.414452829041212358e-15 -6.919350073425236318e-15 0.000000000000000000e+00 6.724454945667396578e-15 3.321543293194986191e-15 -9.702472556665660076e-16 0.000000000000000000e+00 0.000000000000000000e+00 0.000000000000000000e+00 0.000000000000000000e+00 -1.487027707707911436e-15 -3.327613800159216591e-17 0.000000000000000000e+00 1.604490982187315640e-15 -1.487880538733993945e-15 6.724454945667396578e-15 3.321543293194986191e-15 -9.702472556665660076e-16 0.000000000000000000e+00 1.522367268471880997e-16 1.699219833895991391e-15 0.000000000000000000e+00 -5.391279622343279354e-16 -8.547933425875240402e-16 0.000000000000000000e+00 -2.230202044918895492e-15 -8.994466775710020751e-16 6.724454945667396578e-15 3.321543293194986191e-15 -9.702472556665660076e-16 0.000000000000000000e+00 0.000000000000000000e+00 0.000000000000000000e+00 0.000000000000000000e+00 7.019704847209641966e-15 -1.040909627828935725e-15 0.000000000000000000e+00 -4.029499876160132496e-15 -1.249885677648279494e-15 6.724454945667396578e-15 3.321543293194986191e-15 -9.702472556665660076e-16 0.000000000000000000e+00 0.000000000000000000e+00 0.000000000000000000e+00 0.000000000000000000e+00 2.592383989636252098e-15 1.603841467132056713e-15 0.000000000000000000e+00 4.386789451009599703e-15 -2.266966226765349738e-15 -1.867478118878165231e-03 8.475773766502447265e-03 -8.766947090688349820e-03 1.445269337026494350e-01 -9.639434496611418157e-02 -2.438815143905408156e-01 6.403361302476796857e-02 -5.908581054235837599e-02 2.623520430089986560e-02 -6.359837450936655333e-03 -1.191264388909366728e-01 1.993544840242076621e-01 0.000000000000000000e+00 0.000000000000000000e+00 0.000000000000000000e+00 -4.000101910953550714e-15 5.115701662540179030e-15 0.000000000000000000e+00 -5.057132899825674823e-15 4.327621425027143562e-15 0.000000000000000000e+00 -7.210424823011582654e-16 1.877839546682622013e-15 4.579107998279926107e-17 0.000000000000000000e+00 0.000000000000000000e+00 0.000000000000000000e+00 0.000000000000000000e+00 -2.435751919151408359e-15 2.927368694492375024e-16 0.000000000000000000e+00 -1.605024620516263662e-15 -1.484838697727489117e-16 -7.210424823011582654e-16 1.877839546682622013e-15 4.579107998279926107e-17 0.000000000000000000e+00 -5.748951326448339968e-16 -8.536419820802822571e-16 0.000000000000000000e+00 -2.221141791185734569e-15 3.675492883978671417e-16 0.000000000000000000e+00 -2.721793455322985260e-16 -4.169898864224848494e-16 -7.210424823011582654e-16 1.877839546682622013e-15 4.579107998279926107e-17 0.000000000000000000e+00 0.000000000000000000e+00 0.000000000000000000e+00 0.000000000000000000e+00 -2.316738454311947763e-15 4.238616364656867692e-15 0.000000000000000000e+00 -4.075570632500232283e-15 -1.425555733508020876e-15 -7.210424823011582654e-16 1.877839546682622013e-15 4.579107998279926107e-17 0.000000000000000000e+00 0.000000000000000000e+00 0.000000000000000000e+00 0.000000000000000000e+00 -6.290093665380627507e-15 8.588653375354152619e-16 0.000000000000000000e+00 3.262924624139593091e-15 7.096524606874164053e-16
1.500000000000000000e+02 0.000000000000000000e+00 0.000000000000000000e+00 0.000000000000000000e+00 0.000000000000000000e+00 -0.000000000000000000e+00 -1.367091442177141743e-02 8.352567436484864549e-02 4.506297807787588983e-02 -1.096173899875853806e-02 1.269361515052195265e-02 -1.247395467312511774e-01 -1.881725474995960545e-01 1.744646602357548260e-01 3.133537723283179588e-01 2.098608511038415614e-01 -2.356735019400982012e-01 -1.715730803048157171e-01 4.401698454978015401e-02 8.382566342002021470e-03 -9.530998456648825945e-02 1.265084256385037298e-01 -2.181733045814826522e-01 -1.112880146498169548e-01 -8.457493348133372779e-03 2.486424198321809109e-01 6.932813123142933520e-02 3.761720297663241619e-02 3.307544599431876120e-02 -1.329469287817948084e-02 8.821121362042574215e-03 9.273694377981400380e-03 -4.256077125371879148e-03 1.471019210536296529e-02 1.592478504274780216e-02 -7.469515418167770732e-03 5.018060112923551121e-04 -7.438891296821504000e-04 1.968513388803224610e-04 5.869013876677300814e-04 -3.346111035634060510e-03 -2.248615955445829734e-02 -2.790195012236049502e-03 -5.489855940192098736e-03 6.013806925949281672e-03 4.956297614120180883e-02 4.488246395834573875e-03 -2.354630187534102470e-01 1.105792589714135743e-01 1.503721526852811741e-01 1.977501412518917201e-01 1.152901109726042206e-01 3.153582775486675760e-01 -1.715957013785529284e-01 -1.844606652228409083e-01 4.415338165259420911e-01 1.475574399016048310e-01 0.000000000000000000e+00 0.000000000000000000e+00 0.000000000000000000e+00 1.016813165611418746e-14 1.352178458495956117e-15 0.000000000000000000e+00 1.091112317110320848e-14 5.978613972734267243e-15 0.000000000000000000e+00 7.780779066853782462e-15 3.346553377359453485e-15 -2.408967757919671028e-15 0.000000000000000000e+00 0.000000000000000000e+00 0.000000000000000000e+00 0.000000000000000000e+00 -4.103863311753565006e-15 8.731238484467966501e-16 0.000000000000000000e+00 -1.211176375443702066e-15 -5.321327717441127161e-16 7.780779066853782462e-15 3.346553377359453485e-15 -2.408967757919671028e-15 0.000000000000000000e+00 -4.194401105779252064e-15 7.938605502391239751e-17 0.000000000000000000e+00 -2.232727271295001155e-15 -1.004023741950327845e-15 0.000000000000000000e+00 3.697239596966976720e-15 -1.616770527327345114e-15 7.780779066853782462e-15 3.346553377359453485e-15 -2.408967757919671028e-15 0.000000000000000000e+00 0.000000000000000000e+00 0.000000000000000000e+00 0.000000000000000000e+00 -1.247497034145456562e-15 -1.894728986614762883e-15 0.000000000000000000e+00 -8.198840520119622107e-16 5.543462381533282040e-16 7.780779066853782462e-15 3.346553377359453485e-15 -2.408967757919671028e-15 0.000000000000000000e+00 0.000000000000000000e+00 0.000000000000000000e+00 0.000000000000000000e+00 2.787938292959817959e-15 8.349061045490604860e-16 0.000000000000000000e+00 4.078061221534544715e-15 -1.544940265163940449e-15 1.242663161825619715e-03 -1.439120332697231205e-02 -1.663001493985823837e-02 2.711881055470535817e-01 -1.470106879301081027e-01 -4.595198753276447667e-01 9.799347624674116519e-02 -1.031691091753857287e-01 1.547653957887300813e-01 -1.570270479906486771e-02 -1.507027587700831839e-01 2.483240384639226472e-01 0.000000000000000000e+00 0.000000000000000000e+00 0.000000000000000000e+00 2.848646748758851262e-15 -4.253036400074910861e-16 0.000000000000000000e+00 3.958690179648801894e-15 3.842676704989366309e-16 0.000000000000000000e+00 -3.862189973869985699e-15 3.117368859781899500e-15 -1.919765863488066811e-15 0.000000000000000000e+00 0.000000000000000000e+00 0.000000000000000000e+00 0.000000000000000000e+00 -4.261845483047783676e-16 -1.225079529339023176e-15 0.000000000000000000e+00 -1.586918009728332004e-15 -9.983508709049366428e-16 -3.862189973869985699e-15 3.117368859781899500e-15 -1.919765863488066811e-15 0.000000000000000000e+00 2.591653116373262128e-15 -6.693183509773888983e-16 0.000000000000000000e+00 -2.755651777743846170e-15 7.294758767706559144e-16 0.000000000000000000e+00 1.583728494651256895e-15 1.334755679586294528e-15 -3.862189973869985699e-15 3.117368859781899500e-15 -1.919765863488066811e-15 0.000000000000000000e+00 0.000000000000000000e+00 0.000000000000000000e+00 0.000000000000000000e+00 1.921867565177346436e-15 -2.549940264967546980e-16 0.000000000000000000e+00 -9.919804668472573529e-16 -1.501784080927038940e-15 -3.862189973869985699e-15 3.117368859781899500e-15 -1.919765863488066811e-15 0.000000000000000000e+00 0.000000000000000000e+00 0.000000000000000000e+00 0.000000000000000000e+00 -3.122435518104822347e-15 -1.468756395155663443e-15 0.000000000000000000e+00 2.789532239674308107e-16 3.534819906267368681e-15
